#N canvas 341 413 660 222 10;
#X declare -lib hivemindgone;
#X floatatom 12 44 5 0 0 0 - - -;
#X floatatom 69 44 5 0 0 0 - - -;
#X floatatom 12 10 5 0 0 0 - - -;
#X msg 132 10 root C#;
#X msg 83 10 root C;
#X msg 185 10 root Fb;
#X obj 12 27 scaleroute;
#X obj 488 193 declare -lib hivemindgone;
#X text 281 6 [scaleroute] for Pd by Brian Voyer <bvoyer@stevens.edu>
for hivemindgone library \; Route pitch data based on pitch class (PC)
and root. 0 corresponds to the root specified (defaults to C) \, 1
corresponds to a semitone above the root \, and so on. Outputs the
MIDI pitch (outlet 1) and the type of interval (outlet 2) above the
root. Perfect intervals: 0 \, imperfect consonances: 1 \, soft dissonances:
2 \, and sharp dissonances: 3;
#X connect 2 0 6 0;
#X connect 3 0 6 0;
#X connect 4 0 6 0;
#X connect 5 0 6 0;
#X connect 6 0 0 0;
#X connect 6 1 1 0;
